<?xml version="1.0" encoding="UTF-8" standalone="no"?>
<!-- Created with Inkscape (http://www.inkscape.org/) -->

<svg
   version="1.1"
   id="svg1"
   width="350.66666"
   height="222.66667"
   viewBox="0 0 350.66666 222.66667"
   sodipodi:docname="logo4.svg"
   inkscape:version="1.3 (1:1.3+202307231459+0e150ed6c4)"
   xmlns:inkscape="http://www.inkscape.org/namespaces/inkscape"
   xmlns:sodipodi="http://sodipodi.sourceforge.net/DTD/sodipodi-0.dtd"
   xmlns="http://www.w3.org/2000/svg"
   xmlns:svg="http://www.w3.org/2000/svg">
  <defs
     id="defs1">
    <clipPath
       clipPathUnits="userSpaceOnUse"
       id="clipPath1">
      <path
         d="M 0,0 H 263 V 167 H 0 Z"
         id="path1" />
    </clipPath>
    <clipPath
       clipPathUnits="userSpaceOnUse"
       id="clipPath3">
      <path
         d="M 0,0 H 263 V 167 H 0 Z"
         id="path3" />
    </clipPath>
    <clipPath
       clipPathUnits="userSpaceOnUse"
       id="clipPath5">
      <path
         d="M 0,0 H 263 V 167 H 0 Z"
         id="path5" />
    </clipPath>
    <clipPath
       clipPathUnits="userSpaceOnUse"
       id="clipPath7">
      <path
         d="M 0,0 H 263 V 167 H 0 Z"
         id="path7" />
    </clipPath>
    <clipPath
       clipPathUnits="userSpaceOnUse"
       id="clipPath9">
      <path
         d="M 0,0 H 263 V 167 H 0 Z"
         id="path9" />
    </clipPath>
    <clipPath
       clipPathUnits="userSpaceOnUse"
       id="clipPath11">
      <path
         d="M 0,0 H 263 V 167 H 0 Z"
         id="path11" />
    </clipPath>
    <clipPath
       clipPathUnits="userSpaceOnUse"
       id="clipPath13">
      <path
         d="M 0,0 H 263 V 167 H 0 Z"
         id="path13" />
    </clipPath>
    <clipPath
       clipPathUnits="userSpaceOnUse"
       id="clipPath15">
      <path
         d="M 0,0 H 263 V 167 H 0 Z"
         id="path15" />
    </clipPath>
    <clipPath
       clipPathUnits="userSpaceOnUse"
       id="clipPath17">
      <path
         d="M 0,0 H 263 V 167 H 0 Z"
         id="path17" />
    </clipPath>
    <clipPath
       clipPathUnits="userSpaceOnUse"
       id="clipPath19">
      <path
         d="M 0,0 H 263 V 167 H 0 Z"
         id="path19" />
    </clipPath>
    <clipPath
       clipPathUnits="userSpaceOnUse"
       id="clipPath21">
      <path
         d="M 0,0 H 263 V 167 H 0 Z"
         id="path21" />
    </clipPath>
    <clipPath
       clipPathUnits="userSpaceOnUse"
       id="clipPath23">
      <path
         d="M 0,0 H 263 V 167 H 0 Z"
         id="path23" />
    </clipPath>
    <clipPath
       clipPathUnits="userSpaceOnUse"
       id="clipPath25">
      <path
         d="M 0,0 H 263 V 167 H 0 Z"
         id="path25" />
    </clipPath>
    <clipPath
       clipPathUnits="userSpaceOnUse"
       id="clipPath27">
      <path
         d="M 0,0 H 263 V 167 H 0 Z"
         id="path27" />
    </clipPath>
    <clipPath
       clipPathUnits="userSpaceOnUse"
       id="clipPath29">
      <path
         d="M 0,0 H 263 V 167 H 0 Z"
         id="path29" />
    </clipPath>
    <clipPath
       clipPathUnits="userSpaceOnUse"
       id="clipPath31">
      <path
         d="M 0,0 H 263 V 167 H 0 Z"
         id="path31" />
    </clipPath>
    <clipPath
       clipPathUnits="userSpaceOnUse"
       id="clipPath33">
      <path
         d="M 0,0 H 263 V 167 H 0 Z"
         id="path33" />
    </clipPath>
    <clipPath
       clipPathUnits="userSpaceOnUse"
       id="clipPath35">
      <path
         d="M 0,0 H 263 V 167 H 0 Z"
         id="path35" />
    </clipPath>
    <clipPath
       clipPathUnits="userSpaceOnUse"
       id="clipPath37">
      <path
         d="M 0,0 H 263 V 167 H 0 Z"
         id="path37" />
    </clipPath>
    <clipPath
       clipPathUnits="userSpaceOnUse"
       id="clipPath39">
      <path
         d="M 0,0 H 263 V 167 H 0 Z"
         id="path39" />
    </clipPath>
    <clipPath
       clipPathUnits="userSpaceOnUse"
       id="clipPath41">
      <path
         d="M 0,0 H 263 V 167 H 0 Z"
         id="path41" />
    </clipPath>
    <clipPath
       clipPathUnits="userSpaceOnUse"
       id="clipPath43">
      <path
         d="M 0,0 H 263 V 167 H 0 Z"
         id="path43" />
    </clipPath>
    <clipPath
       clipPathUnits="userSpaceOnUse"
       id="clipPath45">
      <path
         d="M 0,0 H 263 V 167 H 0 Z"
         id="path45" />
    </clipPath>
    <clipPath
       clipPathUnits="userSpaceOnUse"
       id="clipPath47">
      <path
         d="M 0,0 H 263 V 167 H 0 Z"
         id="path47" />
    </clipPath>
    <clipPath
       clipPathUnits="userSpaceOnUse"
       id="clipPath49">
      <path
         d="M 0,0 H 263 V 167 H 0 Z"
         id="path49" />
    </clipPath>
    <clipPath
       clipPathUnits="userSpaceOnUse"
       id="clipPath51">
      <path
         d="M 0,0 H 263 V 167 H 0 Z"
         id="path51" />
    </clipPath>
    <clipPath
       clipPathUnits="userSpaceOnUse"
       id="clipPath53">
      <path
         d="M 0,0 H 263 V 167 H 0 Z"
         id="path53" />
    </clipPath>
    <clipPath
       clipPathUnits="userSpaceOnUse"
       id="clipPath55">
      <path
         d="M 0,0 H 263 V 167 H 0 Z"
         id="path55" />
    </clipPath>
    <clipPath
       clipPathUnits="userSpaceOnUse"
       id="clipPath57">
      <path
         d="M 0,0 H 263 V 167 H 0 Z"
         id="path57" />
    </clipPath>
    <clipPath
       clipPathUnits="userSpaceOnUse"
       id="clipPath59">
      <path
         d="M 0,0 H 263 V 167 H 0 Z"
         id="path59" />
    </clipPath>
    <clipPath
       clipPathUnits="userSpaceOnUse"
       id="clipPath61">
      <path
         d="M 0,0 H 263 V 167 H 0 Z"
         id="path61" />
    </clipPath>
  </defs>
  <sodipodi:namedview
     id="namedview1"
     pagecolor="#ffffff"
     bordercolor="#666666"
     borderopacity="1.0"
     inkscape:showpageshadow="2"
     inkscape:pageopacity="0.0"
     inkscape:pagecheckerboard="0"
     inkscape:deskcolor="#d1d1d1"
     inkscape:zoom="2.3552303"
     inkscape:cx="128.22525"
     inkscape:cy="133.74488"
     inkscape:window-width="1850"
     inkscape:window-height="1016"
     inkscape:window-x="0"
     inkscape:window-y="0"
     inkscape:window-maximized="1"
     inkscape:current-layer="g1">
    <inkscape:page
       x="0"
       y="0"
       id="page1"
       width="350.66666"
       height="222.66667"
       margin="0"
       bleed="0"
       inkscape:export-filename="logo4.pdf"
       inkscape:export-xdpi="96"
       inkscape:export-ydpi="96" />
  </sodipodi:namedview>
  <g
     id="g1"
     inkscape:groupmode="layer"
     inkscape:label="">
    <g
       id="g67"
       style="fill:#fed7bf;fill-opacity:1">
      <g
         id="g2"
         style="fill:#fed7bf;fill-opacity:1">
        <path
           d="M 19.906,102.59 3.605,117.395 c 2.508,3.414 5.184,6.687 8.028,9.808 l 8.172,-8.023 c -0.203,-5.946 -0.149,-11.477 0.101,-16.59"
           style="fill:#fed7bf;fill-opacity:1;fill-rule:nonzero;stroke:none"
           transform="scale(1.3333333)"
           clip-path="url(#clipPath1)"
           id="path2" />
      </g>
      <g
         id="g4"
         style="fill:#fed7bf;fill-opacity:1">
        <path
           d="M 22.645,79.449 0.156,98.715 c -0.304,4.957 -0.152,9.726 0.348,14.281 0.453,0.672 0.914,1.34 1.379,2 L 20.156,98.398 c 0.524,-7.207 1.418,-13.523 2.489,-18.949"
           style="fill:#fed7bf;fill-opacity:1;fill-rule:nonzero;stroke:none"
           transform="scale(1.3333333)"
           clip-path="url(#clipPath3)"
           id="path4" />
      </g>
      <g
         id="g6"
         style="fill:#fed7bf;fill-opacity:1">
        <path
           d="m 13.637,129.348 c 2.371,2.48 4.851,4.859 7.422,7.132 -0.504,-4.656 -0.86,-9.109 -1.086,-13.359 z"
           style="fill:#fed7bf;fill-opacity:1;fill-rule:nonzero;stroke:none"
           transform="scale(1.3333333)"
           clip-path="url(#clipPath5)"
           id="path6" />
      </g>
      <g
         id="g8"
         style="fill:#fed7bf;fill-opacity:1">
        <path
           d="M 23.855,73.887 C 26.426,63.266 29.68,55.656 32.238,50.766 L 6.066,72.211 C 3.074,79.977 1.324,87.438 0.523,94.539 L 23.668,74.703 c 0.059,-0.273 0.125,-0.543 0.187,-0.816"
           style="fill:#fed7bf;fill-opacity:1;fill-rule:nonzero;stroke:none"
           transform="scale(1.3333333)"
           clip-path="url(#clipPath7)"
           id="path8" />
      </g>
      <g
         id="g10"
         style="fill:#fed7bf;fill-opacity:1">
        <path
           d="M 25.57,39.406 C 18.051,48.691 12.488,57.723 8.508,66.41 L 34.062,45.473 C 31.105,43.902 28.258,41.879 25.57,39.406"
           style="fill:#fed7bf;fill-opacity:1;fill-rule:nonzero;stroke:none"
           transform="scale(1.3333333)"
           clip-path="url(#clipPath9)"
           id="path10" />
      </g>
      <g
         id="g12"
         style="fill:#fed7bf;fill-opacity:1">
        <path
           d="m 85.52,50.234 c -3.657,0 -6.618,-2.957 -6.618,-6.601 0,-3.645 2.961,-6.602 6.618,-6.602 3.648,0 6.609,2.957 6.609,6.602 0,3.644 -2.961,6.601 -6.609,6.601 m 57.714,-12.906 3.621,4.332 h 9.407 v 2.938 h -10.789 l -4.5,-5.391 z m -3.058,20.793 0.433,-0.5 h 19.661 l 1.82,-3.754 -2.535,-16.59 -18.254,-3.937 -8.719,1.504 H 106.734 L 96.062,29.539 H 65.047 c -21.008,-5.484 -33.899,4.375 -37.504,7.691 7.754,7.118 16.441,10.172 25.812,9.082 l 0.344,2.918 c -1.312,0.153 -2.613,0.227 -3.91,0.227 -4.121,0 -8.144,-0.777 -12.016,-2.289 -2.16,3.246 -7.414,12.246 -11.113,27.648 -3.332,13.864 -5.871,35.231 -2.312,64.477 21.027,17.312 47.988,27.707 77.375,27.707 12.839,0 25.218,-1.992 36.839,-5.668 L 111.27,92.316 104.816,98.027 57.145,97.934 39.801,77.305 l 2.254,-1.891 16.465,19.582 45.183,0.086 22.359,-19.766 -6.914,-9.871 V 43.359 h 2.946 V 64.52 l 6.183,8.832 0.016,-0.016 0.203,0.234 0.586,-0.597 h 24.363 l 6.11,-6.098 -3.293,-3.281 v -3.035 h -14.336 c -5.133,5.429 -12.227,6.507 -12.535,6.554 l -0.215,-1.457 -0.207,-1.453 c 0.066,-0.015 6.777,-1.051 11.207,-6.082"
           style="fill:#fed7bf;fill-opacity:1;fill-rule:nonzero;stroke:none"
           transform="scale(1.3333333)"
           clip-path="url(#clipPath11)"
           id="path12" />
      </g>
    </g>
    <g
       id="g66"
       style="fill:#0b032d;fill-opacity:1">
      <g
         id="g65"
         style="fill:#0b032d;fill-opacity:1">
        <g
           id="g14"
           style="fill:#0b032d;fill-opacity:1">
          <path
             d="m 101.672,51.301 c 4.16,-7.856 7.398,-16.086 9.375,-23.024 -0.75,-0.093 -1.52,-0.172 -2.317,-0.238 -1.878,6.5 -4.957,14.399 -9.085,22.191 -0.762,1.438 -1.551,2.852 -2.352,4.235 1.113,-0.363 2.211,-0.746 3.285,-1.141 0.367,-0.668 0.738,-1.34 1.094,-2.023"
             style="fill:#0b032d;fill-opacity:1;fill-rule:nonzero;stroke:none"
             transform="scale(1.3333333)"
             clip-path="url(#clipPath13)"
             id="path14" />
        </g>
        <g
           id="g16"
           style="fill:#0b032d;fill-opacity:1">
          <path
             d="m 72.484,35.898 c 0.489,-0.925 0.989,-1.839 1.5,-2.746 -1.093,0.336 -2.148,0.684 -3.187,1.039 -0.117,0.211 -0.231,0.422 -0.34,0.637 -4.617,8.711 -7.93,17.219 -9.844,24.727 0.75,0.066 1.528,0.113 2.328,0.148 1.821,-7.004 4.95,-15.129 9.543,-23.805"
             style="fill:#0b032d;fill-opacity:1;fill-rule:nonzero;stroke:none"
             transform="scale(1.3333333)"
             clip-path="url(#clipPath15)"
             id="path16" />
        </g>
        <g
           id="g18"
           style="fill:#0b032d;fill-opacity:1">
          <path
             d="m 68.02,46.801 c -0.34,0.812 -0.68,1.617 -0.993,2.41 3.293,2.945 7.399,5.699 12.118,8 4.839,2.355 9.816,3.945 14.496,4.691 0.476,-0.714 0.953,-1.449 1.418,-2.191 C 90.328,59.094 85.191,57.504 80.195,55.07 75.426,52.746 71.262,49.855 68.02,46.801"
             style="fill:#0b032d;fill-opacity:1;fill-rule:nonzero;stroke:none"
             transform="scale(1.3333333)"
             clip-path="url(#clipPath17)"
             id="path18" />
        </g>
        <g
           id="g20"
           style="fill:#0b032d;fill-opacity:1">
          <path
             d="M 109.793,41.984 C 106.012,36.996 100.039,32.355 92.977,28.91 86.113,25.574 78.945,23.73 72.785,23.73 c -6.808,0 -11.644,2.215 -13.609,6.239 -2.43,4.98 0.117,11.543 6.07,17.554 0.332,-0.824 0.668,-1.648 1.02,-2.476 C 61.59,40.023 59.488,34.77 61.32,31.02 c 1.524,-3.122 5.703,-4.907 11.465,-4.907 5.801,0 12.606,1.754 19.145,4.946 6.73,3.277 12.398,7.668 15.957,12.363 3.383,4.469 4.418,8.617 2.922,11.687 -1.528,3.118 -5.704,4.903 -11.469,4.903 -0.555,0 -1.129,-0.032 -1.699,-0.063 -0.477,0.774 -0.953,1.531 -1.438,2.281 1.07,0.094 2.121,0.168 3.137,0.168 6.808,0 11.644,-2.218 13.609,-6.238 1.918,-3.922 0.797,-8.953 -3.156,-14.176"
             style="fill:#0b032d;fill-opacity:1;fill-rule:nonzero;stroke:none"
             transform="scale(1.3333333)"
             clip-path="url(#clipPath19)"
             id="path20" />
        </g>
        <g
           id="g22"
           style="fill:#0b032d;fill-opacity:1">
          <path
             d="m 95.457,57.535 c -9.531,15.403 -20.953,26.301 -28.145,26.301 -0.941,0 -1.796,-0.199 -2.535,-0.59 -3.922,-2.07 -4.945,-10.004 -2.414,-21.184 -0.797,-0.039 -1.566,-0.093 -2.312,-0.164 -2.602,11.727 -1.531,20.633 3.652,23.375 1.078,0.567 2.293,0.852 3.609,0.852 8.559,0 21.086,-11.953 31.469,-29.648 -1.09,0.371 -2.199,0.722 -3.324,1.058"
             style="fill:#0b032d;fill-opacity:1;fill-rule:nonzero;stroke:none"
             transform="scale(1.3333333)"
             clip-path="url(#clipPath21)"
             id="path22" />
        </g>
        <g
           id="g24"
           style="fill:#0b032d;fill-opacity:1">
          <path
             d="m 89.082,56.078 c -1.859,0.43 -3.719,0.809 -5.562,1.137 1.484,0.594 2.968,1.113 4.437,1.547 0.559,-0.117 1.105,-0.235 1.668,-0.364 7.855,-1.808 15.184,-4.359 21.289,-7.347 -0.133,-0.75 -0.355,-1.524 -0.668,-2.324 -6.008,2.988 -13.312,5.539 -21.164,7.351"
             style="fill:#0b032d;fill-opacity:1;fill-rule:nonzero;stroke:none"
             transform="scale(1.3333333)"
             clip-path="url(#clipPath23)"
             id="path24" />
        </g>
        <g
           id="g26"
           style="fill:#0b032d;fill-opacity:1">
          <path
             d="m 60.309,35.531 c 0.093,0.762 0.277,1.555 0.562,2.36 5.809,-3.008 13.313,-5.797 22.168,-7.844 1.094,-0.25 2.176,-0.481 3.258,-0.703 -1.535,-0.559 -3.067,-1.043 -4.574,-1.434 -8.184,1.953 -15.508,4.613 -21.414,7.621"
             style="fill:#0b032d;fill-opacity:1;fill-rule:nonzero;stroke:none"
             transform="scale(1.3333333)"
             clip-path="url(#clipPath25)"
             id="path26" />
        </g>
        <g
           id="g28"
           style="fill:#0b032d;fill-opacity:1">
          <path
             d="m 79.125,57.902 c -4.113,0.559 -8.109,0.856 -11.832,0.856 -11.207,0 -18.781,-2.598 -19.75,-6.793 -0.828,-3.555 3.281,-8.403 11.176,-12.91 -0.285,-0.782 -0.508,-1.563 -0.657,-2.325 -8.941,5 -14.003,10.774 -12.851,15.774 1.281,5.492 9.328,8.641 22.082,8.641 4.973,0 10.398,-0.508 15.973,-1.469 -1.387,-0.528 -2.77,-1.121 -4.141,-1.774"
             style="fill:#0b032d;fill-opacity:1;fill-rule:nonzero;stroke:none"
             transform="scale(1.3333333)"
             clip-path="url(#clipPath27)"
             id="path28" />
        </g>
        <g
           id="g30"
           style="fill:#0b032d;fill-opacity:1">
          <path
             d="m 126.914,33.625 c -1.273,-5.492 -9.324,-8.645 -22.082,-8.645 -5.676,0 -11.961,0.665 -18.359,1.907 1.406,0.496 2.808,1.051 4.215,1.675 4.933,-0.785 9.734,-1.195 14.144,-1.195 11.211,0 18.785,2.602 19.758,6.793 0.746,3.211 -2.457,7.379 -8.781,11.438 -1.075,0.691 -2.235,1.367 -3.446,2.023 0.328,0.781 0.578,1.551 0.754,2.305 1.403,-0.75 2.738,-1.528 3.985,-2.321 7.328,-4.707 10.812,-9.667 9.812,-13.98"
             style="fill:#0b032d;fill-opacity:1;fill-rule:nonzero;stroke:none"
             transform="scale(1.3333333)"
             clip-path="url(#clipPath29)"
             id="path30" />
        </g>
        <g
           id="g32"
           style="fill:#0b032d;fill-opacity:1">
          <path
             d="m 92.129,43.277 c 0,3.645 -2.961,6.602 -6.613,6.602 -3.649,0 -6.614,-2.957 -6.614,-6.602 0,-3.644 2.965,-6.601 6.614,-6.601 3.652,0 6.613,2.957 6.613,6.601"
             style="fill:#0b032d;fill-opacity:1;fill-rule:evenodd;stroke:none"
             transform="scale(1.3333333)"
             clip-path="url(#clipPath31)"
             id="path32" />
        </g>
        <g
           id="g34"
           style="fill:#0b032d;fill-opacity:1">
          <path
             d="m 75.719,30.164 c 0.843,-1.418 1.707,-2.797 2.59,-4.141 -0.86,-0.14 -1.711,-0.253 -2.543,-0.332 -1.118,1.75 -2.215,3.563 -3.286,5.442 1.063,-0.336 2.137,-0.653 3.239,-0.969"
             style="fill:#0b032d;fill-opacity:1;fill-rule:nonzero;stroke:none"
             transform="scale(1.3333333)"
             clip-path="url(#clipPath33)"
             id="path34" />
        </g>
        <g
           id="g36"
           style="fill:#0b032d;fill-opacity:1">
          <path
             d="M 79.762,23.855 C 88.574,10.996 98.387,2.289 104.816,2.289 c 0.942,0 1.793,0.195 2.536,0.59 4.168,2.199 5.062,11.047 1.882,23.371 0.793,0.066 1.559,0.152 2.301,0.25 C 114.793,13.656 113.941,3.766 108.422,0.852 107.348,0.285 106.133,0 104.816,0 97.297,0 86.719,9.219 77.223,23.449 c 0.836,0.11 1.679,0.239 2.539,0.406"
             style="fill:#0b032d;fill-opacity:1;fill-rule:nonzero;stroke:none"
             transform="scale(1.3333333)"
             clip-path="url(#clipPath35)"
             id="path36" />
        </g>
      </g>
      <g
         id="g64"
         style="fill:#0b032d;fill-opacity:1">
        <g
           id="g38"
           style="fill:#0b032d;fill-opacity:1">
          <path
             d="m 98.855,103.887 h 6.071 v 25.574 l 17.75,-25.574 h 5.765 v 35.035 h -6.07 v -25.527 l -17.699,25.527 h -5.817 z"
             style="fill:#0b032d;fill-opacity:1;fill-rule:nonzero;stroke:none"
             transform="scale(1.3333333)"
             clip-path="url(#clipPath37)"
             id="path38" />
        </g>
        <g
           id="g40"
           style="fill:#0b032d;fill-opacity:1">
          <path
             d="m 134.148,103.887 h 6.172 v 14.566 h 16.742 v -14.566 h 6.168 v 35.035 h -6.168 V 124.156 H 140.32 v 14.766 h -6.172 z"
             style="fill:#0b032d;fill-opacity:1;fill-rule:nonzero;stroke:none"
             transform="scale(1.3333333)"
             clip-path="url(#clipPath39)"
             id="path40" />
        </g>
        <g
           id="g42"
           style="fill:#0b032d;fill-opacity:1">
          <path
             d="m 178.484,109.594 h -11.132 v -5.707 h 28.48 v 5.707 h -11.133 v 29.328 h -6.215 z"
             style="fill:#0b032d;fill-opacity:1;fill-rule:nonzero;stroke:none"
             transform="scale(1.3333333)"
             clip-path="url(#clipPath41)"
             id="path42" />
        </g>
        <g
           id="g44"
           style="fill:#0b032d;fill-opacity:1">
          <path
             d="m 197.91,133.516 3.961,-4.055 c 3.059,2.801 5.867,4.555 10.277,4.555 5.965,0 10.481,-4.305 11.43,-10.11 h -15.742 v -5.25 h 15.695 c -1.054,-5.66 -5.566,-9.812 -11.383,-9.812 -4.062,0 -7.171,1.648 -9.976,4.152 l -3.512,-4.203 c 3.313,-3.102 7.121,-5.504 13.438,-5.504 10.578,0 18.05,8.203 18.05,18.117 0,10.156 -7.57,18.117 -17.8,18.117 -6.618,0 -10.828,-2.207 -14.438,-6.007"
             style="fill:#0b032d;fill-opacity:1;fill-rule:nonzero;stroke:none"
             transform="scale(1.3333333)"
             clip-path="url(#clipPath43)"
             id="path44" />
        </g>
        <g
           id="g46"
           style="fill:#0b032d;fill-opacity:1">
          <path
             d="m 229.457,138.766 0.602,-5.051 c 0.453,0.148 1.253,0.301 2.003,0.301 3.563,0 6.872,-2.254 6.872,-23.223 v -6.906 H 263 v 35.035 h -6.168 v -29.481 h -12.133 v 3.153 c 0,22.269 -4.058,26.726 -10.98,26.726 -1.356,0 -3.313,-0.304 -4.262,-0.554"
             style="fill:#0b032d;fill-opacity:1;fill-rule:nonzero;stroke:none"
             transform="scale(1.3333333)"
             clip-path="url(#clipPath45)"
             id="path46" />
        </g>
      </g>
      <g
         id="g63"
         style="fill:#0b032d;fill-opacity:1">
        <g
           id="g48"
           style="fill:#0b032d;fill-opacity:1">
          <path
             d="m 180.234,77.355 -7.164,-9.039 h -1.605 v 17.809 h 2.758 V 73.457 l 6.011,7.527 5.989,-7.527 v 12.668 h 2.75 V 68.316 h -1.578 z"
             style="fill:#0b032d;fill-opacity:1;fill-rule:nonzero;stroke:none"
             transform="scale(1.3333333)"
             clip-path="url(#clipPath47)"
             id="path48" />
        </g>
        <g
           id="g50"
           style="fill:#0b032d;fill-opacity:1">
          <path
             d="M 194.781,80.887 V 68.316 h -2.754 v 17.809 h 1.606 l 9.426,-12.559 v 12.559 h 2.753 V 68.316 h -1.605 z"
             style="fill:#0b032d;fill-opacity:1;fill-rule:nonzero;stroke:none"
             transform="scale(1.3333333)"
             clip-path="url(#clipPath49)"
             id="path50" />
        </g>
        <g
           id="g52"
           style="fill:#0b032d;fill-opacity:1">
          <path
             d="m 248.609,68.316 -9.425,12.575 V 68.316 h -2.754 v 17.809 h 1.601 l 9.43,-12.559 v 12.559 h 2.758 V 68.316 Z"
             style="fill:#0b032d;fill-opacity:1;fill-rule:nonzero;stroke:none"
             transform="scale(1.3333333)"
             clip-path="url(#clipPath51)"
             id="path52" />
        </g>
        <g
           id="g54"
           style="fill:#0b032d;fill-opacity:1">
          <path
             d="m 227.414,68.949 c -2.109,0 -3.949,1.102 -4.914,2.649 v -3.282 h -2.754 v 7.989 c 0,2.75 -2.035,4.734 -4.637,4.734 -2.605,0 -4.644,-1.984 -4.644,-4.734 0,-2.739 2.039,-4.754 4.644,-4.754 1.371,0 2.575,0.566 3.418,1.496 V 70.27 c -0.988,-0.813 -2.273,-1.321 -3.703,-1.321 -4.254,0 -7.133,3.258 -7.133,7.356 0,4.093 2.879,7.324 7.133,7.324 2.121,0 3.953,-1.07 4.922,-2.617 v 5.113 l 2.793,0.008 V 75.949 c 0.172,-2.562 2.137,-4.398 4.621,-4.398 2.602,0 4.637,2.015 4.637,4.754 0,2.75 -2.035,4.734 -4.637,4.734 -1.355,0 -2.539,-0.551 -3.39,-1.457 v 2.824 c 0.976,0.758 2.238,1.223 3.644,1.223 4.234,0 7.113,-3.231 7.113,-7.324 0,-4.098 -2.879,-7.356 -7.113,-7.356"
             style="fill:#0b032d;fill-opacity:1;fill-rule:nonzero;stroke:none"
             transform="scale(1.3333333)"
             clip-path="url(#clipPath53)"
             id="path54" />
        </g>
        <g
           id="g56"
           style="fill:#0b032d;fill-opacity:1">
          <path
             d="M 119.199,80.891 V 68.316 h -2.754 v 17.809 h 1.602 l 9.433,-12.559 v 12.559 h 2.75 V 68.316 h -1.601 z"
             style="fill:#0b032d;fill-opacity:1;fill-rule:nonzero;stroke:none"
             transform="scale(1.3333333)"
             clip-path="url(#clipPath55)"
             id="path56" />
        </g>
        <g
           id="g58"
           style="fill:#0b032d;fill-opacity:1">
          <path
             d="m 110.605,74.609 h -9.066 v -6.293 h -2.758 v 17.809 h 2.758 v -8.77 h 9.066 v 8.77 h 2.75 V 68.316 h -2.75 z"
             style="fill:#0b032d;fill-opacity:1;fill-rule:nonzero;stroke:none"
             transform="scale(1.3333333)"
             clip-path="url(#clipPath57)"
             id="path58" />
        </g>
        <g
           id="g60"
           style="fill:#0b032d;fill-opacity:1">
          <path
             d="m 159.121,75.535 c -0.633,1.27 -2.269,0.969 -2.555,0.953 -1.449,-0.082 -2.707,-1.277 -3.394,-3.058 -0.063,-0.153 -0.113,-0.309 -1.481,-5.114 h -2.902 c 1.363,4.813 1.649,5.739 1.707,5.899 1.145,3.359 3.883,5.363 7.621,4.508 l -0.965,3.043 c -0.644,1.882 -2.859,2.523 -5.293,1.851 l -0.808,2.649 c 3.832,1.16 7.613,-0.125 8.82,-4.395 l 4.277,-13.555 h -2.757 z"
             style="fill:#0b032d;fill-opacity:1;fill-rule:nonzero;stroke:none"
             transform="scale(1.3333333)"
             clip-path="url(#clipPath59)"
             id="path60" />
        </g>
        <g
           id="g62"
           style="fill:#0b032d;fill-opacity:1">
          <path
             d="m 135.246,75.375 c 0,-2.633 1.961,-4.563 4.457,-4.563 h 4.313 v 9.11 h -4.348 c -2.48,-0.02 -4.422,-1.914 -4.422,-4.547 m 8.77,-7.059 h -4.649 v 0.008 c -4.051,0.031 -6.785,3.145 -6.785,7.051 0,2.43 1.055,4.531 2.816,5.789 0.43,0.309 0.899,0.555 1.411,0.754 -0.118,0.461 -0.282,0.922 -0.52,1.387 -0.066,0.125 -0.152,0.273 -1.777,2.82 h 3.304 c 0.602,-0.949 0.789,-1.262 0.836,-1.344 0.446,-0.777 0.75,-1.574 0.914,-2.367 h 4.45 v 3.711 h 2.757 V 68.316 Z"
             style="fill:#0b032d;fill-opacity:1;fill-rule:nonzero;stroke:none"
             transform="scale(1.3333333)"
             clip-path="url(#clipPath61)"
             id="path62" />
        </g>
      </g>
    </g>
  </g>
</svg>
